<?xml version="1.0" encoding="UTF-8"?>
<svg id="Layer_2" data-name="Layer 2" xmlns="http://www.w3.org/2000/svg" viewBox="0 0 662.75 99.59">
  <defs>
    <style>
      .cls-1 {
        fill: #231f20;
      }
    </style>
  </defs>
  <g id="Layer_1-2" data-name="Layer 1">
    <g>
      <path class="cls-1" d="M208.13,51.01S227.39.43,274.09,0c46.7-.43,73.28,46.48,73.28,46.48,0,0-34.18-26.71-73.41-27.52-39.23-.81-65.83,32.04-65.83,32.04Z"/>
      <path class="cls-1" d="M338.69,59.42s-19.72,39.78-61.75,40.17c-42.02.39-63.55-36.1-63.55-36.1,0,0,26,24.56,61.3,25.29s64-29.35,64-29.35Z"/>
      <path class="cls-1" d="M55.32,53.08c0,7.28-2.73,13.49-8.19,18.63-5.46,5.14-11.88,7.7-19.26,7.7s-14.16-2.6-19.64-7.81C2.74,66.4,0,60.01,0,52.45s2.73-13.83,8.19-19.08c5.46-5.25,11.93-7.88,19.4-7.88,5.32,0,10.41,1.51,15.27,4.52,4.86,3.01,8.15,6.92,9.87,11.73h-11.49c-1.49-2.29-3.49-4.07-5.99-5.36-2.5-1.28-5.12-1.93-7.88-1.93-5,0-9.21,1.76-12.64,5.29-3.43,3.53-5.15,7.78-5.15,12.78,0,2.33.49,4.67,1.47,7,1.45,3.46,3.65,6.14,6.62,8.05,2.96,1.91,6.36,2.87,10.19,2.87,3.27,0,6.27-.85,9-2.56,2.73-1.7,4.84-4.03,6.34-6.97h-21.71v-8.96h33.82v1.12Z"/>
      <path class="cls-1" d="M87.4,78.36h-25.42V26.54h9.59v42.86h15.83v8.96Z"/>
      <path class="cls-1" d="M140.76,78.36h-10.57l-5.53-13.38h-18.56l-5.53,13.38h-10.58l21.57-51.82h7.49l21.71,51.82ZM121.22,55.95l-5.88-15.9h-.14l-5.88,15.9h11.91Z"/>
      <path class="cls-1" d="M182.29,59.45c0,5.23-1,9.31-3.01,12.26-1.73,2.43-3.98,4.32-6.76,5.67-2.78,1.35-5.68,2.03-8.72,2.03s-5.87-.65-8.65-1.96c-2.78-1.31-5.03-3.13-6.76-5.46-2.15-2.85-3.22-7.03-3.22-12.54V26.54h9.59v32.91c0,7.33,2.99,11,8.96,11s8.96-3.67,8.96-11V26.54h9.59v32.91Z"/>
      <path class="cls-1" d="M239.78,41.31h-10.92c-3.92-4.57-8.54-6.86-13.87-6.86-4.67,0-8.65,1.81-11.94,5.43-3.29,3.62-4.94,7.79-4.94,12.5s1.69,8.96,5.08,12.6c3.38,3.64,7.43,5.46,12.15,5.46s9.06-2.17,13.03-6.51h11.13c-1.96,4.67-5.17,8.42-9.63,11.24-4.46,2.83-9.23,4.24-14.32,4.24-7.42,0-13.78-2.67-19.08-8.02-5.3-5.35-7.95-11.73-7.95-19.15s2.64-13.62,7.91-18.87c5.27-5.25,11.58-7.88,18.91-7.88,5.32,0,10.19,1.42,14.6,4.27,4.41,2.85,7.69,6.7,9.84,11.55Z"/>
      <path class="cls-1" d="M307.71,54.06c0,9.04-3.23,16.75-9.68,23.12-6.46,6.37-14.23,9.56-23.33,9.56s-16.88-3.18-23.33-9.56c-6.46-6.37-9.68-14.08-9.68-23.12s3.21-16.95,9.64-23.37c6.43-6.43,14.22-9.64,23.38-9.64s16.95,3.21,23.37,9.64c6.43,6.43,9.64,14.22,9.64,23.37ZM296.02,53.97c0-6.03-2.06-11.2-6.19-15.53-4.12-4.32-9.17-6.48-15.14-6.48s-11.02,2.16-15.14,6.48c-4.12,4.32-6.18,9.5-6.18,15.53s2.08,11.03,6.23,15.36c4.15,4.32,9.18,6.48,15.1,6.48s10.95-2.16,15.1-6.48c4.15-4.32,6.23-9.44,6.23-15.36Z"/>
      <path class="cls-1" d="M369.4,78.36h-9.59v-38.87h-.21l-13.24,38.87h-8.12l-13.31-38.87h-.14v38.87h-9.59V26.54h13.31l13.8,39.22h.14l13.66-39.22h13.31v51.82Z"/>
      <path class="cls-1" d="M425.08,78.36h-10.57l-5.53-13.38h-18.56l-5.53,13.38h-10.58l21.57-51.82h7.49l21.71,51.82ZM405.54,55.95l-5.88-15.9h-.14l-5.88,15.9h11.91Z"/>
      <path class="cls-1" d="M497.49,41.31h-10.92c-3.92-4.57-8.54-6.86-13.87-6.86-4.67,0-8.65,1.81-11.94,5.43-3.29,3.62-4.94,7.79-4.94,12.5s1.69,8.96,5.08,12.6c3.39,3.64,7.43,5.46,12.15,5.46s9.06-2.17,13.03-6.51h11.13c-1.96,4.67-5.17,8.42-9.63,11.24-4.46,2.83-9.23,4.24-14.32,4.24-7.42,0-13.78-2.67-19.08-8.02-5.3-5.35-7.95-11.73-7.95-19.15s2.64-13.62,7.91-18.87c5.27-5.25,11.58-7.88,18.91-7.88,5.32,0,10.19,1.42,14.6,4.27,4.41,2.85,7.69,6.7,9.84,11.55Z"/>
      <path class="cls-1" d="M526.13,78.36h-25.42V26.54h9.59v42.86h15.83v8.96Z"/>
      <path class="cls-1" d="M541.11,78.36h-9.59V26.54h9.59v51.82Z"/>
      <path class="cls-1" d="M588.87,78.36h-10.71l-21.64-37.68h-.14v37.68h-9.59V26.54h10.92l21.43,37.68h.14V26.54h9.59v51.82Z"/>
      <path class="cls-1" d="M605.54,78.36h-9.59V26.54h9.59v51.82Z"/>
      <path class="cls-1" d="M662.75,41.31h-10.92c-3.92-4.57-8.54-6.86-13.87-6.86-4.67,0-8.65,1.81-11.94,5.43-3.29,3.62-4.94,7.79-4.94,12.5s1.69,8.96,5.08,12.6c3.39,3.64,7.43,5.46,12.15,5.46s9.06-2.17,13.03-6.51h11.13c-1.96,4.67-5.17,8.42-9.63,11.24-4.46,2.83-9.23,4.24-14.32,4.24-7.42,0-13.78-2.67-19.08-8.02-5.3-5.35-7.95-11.73-7.95-19.15s2.64-13.62,7.91-18.87c5.27-5.25,11.58-7.88,18.91-7.88,5.32,0,10.19,1.42,14.6,4.27s7.69,6.7,9.84,11.55Z"/>
      <circle class="cls-1" cx="274.69" cy="53.89" r="14.04"/>
      <path class="cls-1" d="M231.16,90.07c3.91,2.84,8.35,5.58,13.31,7.9H0v-7.9h231.16Z"/>
      <path class="cls-1" d="M660.6,90.07v7.9h-353.69c4.71-2.28,8.93-5,12.7-7.9h341Z"/>
    </g>
  </g>
</svg>